# AST/ASF file generated using VICON BodyLanguage
# -----------------------------------------------
:version 1.10
:name VICON
:units
  mass 1.0
  length 0.45
  angle deg
:documentation
   .ast/.asf automatically generated from VICON data using
   VICON BodyBuilder and BodyLanguage model FoxedUp or BRILLIANT.MOD
:root
   order TX TY TZ RX RY RZ
   axis XYZ
   position 0 0 0  
   orientation 0 0 0 
:bonedata
  begin
     id 1 
     name lhipjoint
     direction 0.612567 -0.751349 0.245431 
     length 2.42285 
     axis 0 0 0  XYZ
  end
  begin
     id 2 
     name lfemur
     direction 0.34202 -0.939693 0  
     length 7.11304  
     axis 0 0 20  XYZ
    dof rx ry rz
    limits (-160.0 20.0)
           (-70.0 70.0)
           (-60.0 70.0)
  end
  begin
     id 3 
     name ltibia
     direction 0.34202 -0.939693 0   
     length 7.84529   
     axis 0 0 20   XYZ
    dof rx
    limits (-10.0 170.0)
  end
  begin
     id 4 
     name lfoot
     direction 0.0779239 -0.214094 0.9737   
     length 1.97176   
     axis -90 7.62852e-016 20   XYZ
    dof rx rz
    limits (-45.0 90.0)
           (-70.0 20.0)
  end
  begin
     id 5 
     name ltoes
     direction 1.53565e-011 -4.21709e-011 1   
     length 0.993197   
     axis -90 7.62852e-016 20   XYZ
    dof rx
    limits (-90.0 20.0)
  end
  begin
     id 6 
     name rhipjoint
     direction -0.665722 -0.709315 0.231701   
     length 2.56642  
     axis 0 0 0  XYZ 
  end
  begin
     id 7 
     name rfemur
     direction -0.34202 -0.939693 0   
     length 7.32108   
     axis 0 0 -20   XYZ
    dof rx ry rz
    limits (-160.0 20.0)
           (-70.0 70.0)
           (-70.0 60.0)
  end
  begin
     id 8 
     name rtibia
     direction -0.34202 -0.939693 0   
     length 7.81254   
     axis 0 0 -20   XYZ
    dof rx
    limits (-10.0 170.0)
 end
 begin
     id 9 
     name rfoot
     direction -0.0832806 -0.228812 0.969902   
     length 2.08278  
     axis -90 -7.62852e-016 -20   XYZ
    dof rx rz
    limits (-45.0 90.0)
           (-20.0 70.0)
  end
  begin
     id 10 
     name rtoes
     direction -1.53589e-011 -4.22086e-011 1   
     length 1.04609   
     axis -90 -7.62852e-016 -20   XYZ
    dof rx
    limits (-90.0 20.0)
  end
  begin
     id 11 
     name lowerback
     direction -0.00506013 0.988403 -0.151766   
     length 2.01978   
     axis 0 0 0   XYZ
    dof rx ry rz
    limits (-20.0 45.0)
           (-30.0 30.0)
           (-30.0 30.0)
  end
  begin
     id 12 
     name upperback
     direction -0.00836389 0.99968 0.0238859   
     length 2.01276   
     axis 0 0 0   XYZ
    dof rx ry rz
    limits (-20.0 45.0)
           (-30.0 30.0)
           (-30.0 30.0)
  end
  begin
     id 13 
     name thorax
     direction -0.00684136 0.995386 0.0957043   
     length 2.07303   
     axis 0 0 0   XYZ
    dof rx ry rz
    limits (-20.0 45.0)
           (-30.0 30.0)
           (-30.0 30.0)
  end
  begin
     id 14 
     name lowerneck
     direction -0.0161045 0.999661 0.0204485   
     length 1.91243   
     axis 0 0 0   XYZ
    dof rx ry rz
    limits (-20.0 45.0)
           (-30.0 30.0)
           (-30.0 30.0)
  end
  begin
     id 15 
     name upperneck
     direction 0.0553583 0.990946 -0.122319   
     length 1.91574   
     axis 0 0 0   XYZ
    dof rx ry rz
    limits (-20.0 45.0)
           (-30.0 30.0)
           (-30.0 30.0)
  end
  begin
     id 16
     name head
     direction 0.0180273 0.998839 -0.0446756  
     length 1.92693  
     axis 0 0 0   XYZ
    dof rx ry rz
    limits (-20.0 45.0)
           (-30.0 30.0)
           (-30.0 30.0)
  end
  begin
     id 17 
     name lclavicle
     direction 0.945646 0.319323 -0.0615358  
     length 4.0076  
     axis 0 0 0   XYZ
    dof ry rz
    limits (-20.0 10.0)
           (0.0 20.0)
  end
  begin
     id 18 
     name lhumerus
     direction 1 -4.48967e-011 -2.79996e-027   
     length 5.64147   
     axis 180 -30 -90   XYZ
    dof rx ry rz
    limits (-60.0 90.0)
           (-90.0 90.0)
           (-90.0 90.0)
  end
  begin
     id 19
     name lradius
     direction 1 -4.48976e-011 -9.5122e-027   
     length 2.86444   
     axis 180 -30 -90   XYZ
    dof rx
    limits (-10.0 170.0)
  end
  begin
     id 20
     name lwrist
     direction 1 -4.48983e-011 -1.24047e-026   
     length 1.43222   
     axis 9.05591e-015 90 90   XYZ
    dof ry
    limits (-180.0 0.0)
 end
  begin
     id 21 
     name lhand
     direction 1 -4.4892e-011 -2.48094e-026   
     length 0.722123   
     axis 1.58305e-014 90 90   XYZ
    dof rx rz
    limits (-90.0 90.0)
           (-45.0 45.0)
  end
  begin
     id 22 
     name lfingers
     direction 1 -4.48895e-011 -4.96187e-026   
     length 0.582194   
     axis 3.1661e-014 90 90   XYZ
    dof rx
    limits (0.0 90.0)
  end
  begin
     id 23
     name lthumb
     direction 0.707107 -6.34961e-011 0.707107   
     length 0.835918   
     axis -90 45 2.85299e-015   XYZ
    dof rx rz
    limits (-45.0 45.0)
           (-45.0 45.0)
  end
  begin
     id 24 
     name rclavicle
     direction -0.932635 0.324218 -0.15835   
     length 3.65819  
     axis 0 0 0   XYZ 
    dof ry rz
    limits (-10.0 20.0)
           (-20.0 0.0)
  end
  begin
     id 25 
     name rhumerus
     direction -1 -4.48965e-011 -4.02296e-027  
     length 5.44729   
     axis 180 30 90   XYZ
    dof rx ry rz
    limits (-90.0 60.0)
           (-90.0 90.0)
           (-90.0 90.0)
  end
  begin
     id 26 
     name rradius
     direction -1 -4.48957e-011 -8.81087e-027   
     length 3.08821   
     axis 180 30 90   XYZ
    dof rx
    limits (-10.0 170.0)
  end
  begin
     id 27 
     name rwrist
     direction -1 -4.49015e-011 -1.24047e-026   
     length 1.5441   
     axis 9.05591e-015 -90 -90   XYZ
    dof ry
    limits (-180.0 0.0)
  end
  begin
     id 28
     name rhand
     direction -1 -4.4891e-011 -2.48094e-026   
     length 0.821049   
     axis 1.58305e-014 -90 -90   XYZ
    dof rx rz
    limits (-90.0 90.0)
           (-45.0 45.0)
  end
  begin
     id 29
     name rfingers
     direction -1 -4.48985e-011 -4.96187e-026   
     length 0.661951   
     axis 3.1661e-014 -90 -90   XYZ
    dof rx
    limits (0.0 90.0)
  end
  begin
     id 30
     name rthumb
     direction -0.707107 -6.34906e-011 0.707107   
     length 0.950433   
     axis -90 -45 -2.85299e-015   XYZ
    dof rx rz
    limits (-45.0 45.0)
           (-45.0 45.0)
  end
:hierarchy
  begin
    root lhipjoint rhipjoint lowerback
    lhipjoint lfemur
    lfemur ltibia
    ltibia lfoot
    lfoot ltoes
    rhipjoint rfemur
    rfemur rtibia
    rtibia rfoot
    rfoot rtoes
    lowerback upperback
    upperback thorax
    thorax lowerneck lclavicle rclavicle
    lowerneck upperneck
    upperneck head
    lclavicle lhumerus
    lhumerus lradius
    lradius lwrist
    lwrist lhand lthumb
    lhand lfingers
    rclavicle rhumerus
    rhumerus rradius
    rradius rwrist
    rwrist rhand rthumb
    rhand rfingers
  end

#!OML:ASF F:\VICON\USERDATA\INSTALL\rory3\rory3.ASF
:FULLY-SPECIFIED
:DEGREES
404
root 3.02079 17.687 0.539162 -63.6005 88.6449 -62.4785
lowerback 6.4888 -0.494376 3.20699
upperback -2.47498 -0.43066 -1.07197
thorax -6.26543 -0.362322 -2.87388
lowerneck -5.05696 -5.23558 -4.82092
upperneck 9.8543 -7.39689 8.24108
head 4.25873 -3.3759 2.90806
rclavicle -3.97569e-016 1.23246e-014
rhumerus -8.44735 -9.43303 -30.0068
rradius 121.892
rwrist -58.5108
rhand -8.29054 16.1665
rfingers 7.12502
rthumb 17.6293 -13.0543
lclavicle -3.97569e-016 1.23246e-014
lhumerus 0.619084 14.7942 45.1298
lradius 125.045
lwrist 80.224
lhand 4.55931 9.13797
lfingers 7.12502
lthumb 29.9495 36.7344
rfemur 1.09071 0.260388 20.6219
rtibia 13.8059
rfoot -15.1174 -0.922362
rtoes -6.67173
lfemur 2.63665 1.08981 -14.3148
ltibia 9.37041
lfoot -11.2312 0.735647
ltoes -6.99268
405
root 3.02041 17.6935 0.536608 -60.8467 88.6494 -59.7406
lowerback 6.55179 -0.512409 3.22607
upperback -2.50213 -0.450657 -1.07049
thorax -6.33209 -0.374486 -2.8807
lowerneck -5.10976 -5.22228 -4.81313
upperneck 9.8954 -7.3743 8.17459
head 4.27577 -3.3662 2.88621
rclavicle 2.78299e-015 6.36111e-015
rhumerus -7.09409 -11.2785 -28.8805
rradius 120.524
rwrist -58.149
rhand -9.10169 16.3589
rfingers 7.12502
rthumb 16.8486 -12.9302
lclavicle 2.78299e-015 6.36111e-015
lhumerus 1.8439 16.7747 44.1754
lradius 124.161
lwrist 80.9472
lhand 3.55173 8.48175
lfingers 7.12502
lthumb 28.9876 36.2476
rfemur 0.994152 0.260456 20.5613
rtibia 13.8845
rfoot -15.079 -0.898436
rtoes -5.62718
lfemur 2.73401 1.14752 -14.3661
ltibia 9.17815
lfoot -11.1485 0.792786
ltoes -7.22219
406
root 3.0191 17.6984 0.534392 -58.1607 88.6929 -57.0942
lowerback 6.58982 -0.538287 3.17778
upperback -2.53578 -0.487782 -1.06702
thorax -6.39169 -0.392199 -2.84533
lowerneck -5.17844 -5.20521 -4.828
upperneck 9.96042 -7.34886 8.14142
head 4.30464 -3.35322 2.8779
rclavicle -9.93923e-016 -5.56597e-015
rhumerus -5.68159 -13.0752 -28.0105
rradius 118.983
rwrist -57.3074
rhand -9.72788 16.5479
rfingers 7.12502
rthumb 16.2457 -12.7915
lclavicle -9.93923e-016 -5.56597e-015
lhumerus 2.98029 18.6061 43.3115
lradius 123.311
lwrist 81.3609
lhand 2.436 7.82292
lfingers 7.12502
lthumb 27.9215 35.7671
rfemur 0.893721 0.195518 20.4606
rtibia 13.9433
rfoot -15.0223 -0.853376
rtoes -5.98316
lfemur 2.75997 1.18338 -14.4527
ltibia 9.04601
lfoot -11.0577 0.789486
ltoes -7.06894
407
root 3.01635 17.6948 0.533213 -54.6744 88.7195 -53.6475
lowerback 6.64276 -0.557815 3.12558
upperback -2.5713 -0.517042 -1.075
thorax -6.46131 -0.40628 -2.82065
lowerneck -5.18987 -5.1828 -4.81415
upperneck 9.93199 -7.31683 8.12862
head 4.29479 -3.33818 2.87368
rclavicle 9.81499e-016 -3.18055e-015
rhumerus -4.41797 -14.7984 -27.132
rradius 117.543
rwrist -56.3469
rhand -10.3278 16.6172
rfingers 7.12502
rthumb 15.6679 -12.7684
lclavicle 9.81499e-016 -3.18055e-015
lhumerus 4.10508 20.3195 42.4799
lradius 122.424
lwrist 81.6501
lhand 1.22897 7.11061
lfingers 7.12502
lthumb 26.767 35.2369
rfemur 0.84813 0.187879 20.3875
rtibia 13.9692
rfoot -15.0473 -0.774649
rtoes -6.80884
lfemur 2.7473 1.23825 -14.5328
ltibia 8.97333
lfoot -10.9737 0.758067
ltoes -6.63553
408
root 3.01452 17.6917 0.531754 -51.54 88.705 -50.5206
lowerback 6.78031 -0.568162 3.17134
upperback -2.63878 -0.524602 -1.12611
thorax -6.61391 -0.416632 -2.89915
lowerneck -5.0979 -5.18226 -4.71215
upperneck 9.86018 -7.31966 8.09889
head 4.25297 -3.34077 2.85071
rclavicle -7.33018e-015 -3.57812e-015
rhumerus -3.35526 -16.3303 -26.3404
rradius 116.168
rwrist -55.2141
rhand -10.9455 16.7584
rfingers 7.12502
rthumb 15.073 -12.6729
lclavicle -7.33018e-015 -3.57812e-015
lhumerus 5.22848 21.85 41.6318
lradius 121.518
lwrist 81.6554
lhand -0.0786344 6.07302
lfingers 7.12502
lthumb 25.5151 34.3846
rfemur 0.842649 0.227067 20.3498
rtibia 13.9731
rfoot -15.0605 -0.683768
rtoes -6.74632
lfemur 2.7369 1.30484 -14.5793
ltibia 8.97111
lfoot -10.961 0.771537
ltoes -6.8286
409
root 3.01312 17.693 0.531361 -50.4346 88.6404 -49.4621
lowerback 6.89964 -0.569361 3.27537
upperback -2.7195 -0.513094 -1.15265
thorax -6.76946 -0.419935 -2.98728
lowerneck -5.07181 -5.19852 -4.64925
upperneck 9.86971 -7.34582 8.07842
head 4.2502 -3.35249 2.83323
rclavicle -3.37934e-015 9.14409e-015
rhumerus -2.35079 -17.7859 -25.6925
rradius 114.808
rwrist -54.0221
rhand -11.5203 16.9802
rfingers 7.12502
rthumb 14.5192 -12.4917
lclavicle -3.37934e-015 9.14409e-015
lhumerus 6.33902 23.2895 40.8908
lradius 120.559
lwrist 81.4728
lhand -1.0343 5.22654
lfingers 7.12502
lthumb 24.5993 33.6659
rfemur 0.810591 0.283373 20.3782
rtibia 13.9083
rfoot -15.002 -0.588076
rtoes -5.84391
lfemur 2.62463 1.36926 -14.5467
ltibia 9.10215
lfoot -11.007 0.780194
ltoes -6.78343
410
root 3.01218 17.6951 0.531184 -48.1284 88.633 -47.1722
lowerback 6.95887 -0.557339 3.22256
upperback -2.73089 -0.498618 -1.12763
thorax -6.81348 -0.410886 -2.93291
lowerneck -5.13235 -5.21531 -4.67552
upperneck 9.89686 -7.36504 8.06038
head 4.27018 -3.36213 2.82894
rclavicle -1.49089e-016 2.38542e-015
rhumerus -1.25345 -19.2875 -25.0699
rradius 113.523
rwrist -53.2193
rhand -12.1009 17.0511
rfingers 7.12502
rthumb 13.9598 -12.4603
lclavicle -1.49089e-016 2.38542e-015
lhumerus 7.51731 24.687 40.5585
lradius 119.511
lwrist 81.2686
lhand -1.47772 5.0391
lfingers 7.12502
lthumb 24.1742 33.5357
rfemur 0.819121 0.321481 20.3451
rtibia 13.8192
rfoot -14.9327 -0.632282
rtoes -6.0973
lfemur 2.544 1.41774 -14.5889
ltibia 9.23036
lfoot -11.0425 0.765145
ltoes -6.61941
411
root 3.01189 17.696 0.531048 -48.5496 88.5525 -47.6333
lowerback 6.92934 -0.554723 3.20689
upperback -2.73273 -0.491465 -1.03003
thorax -6.79643 -0.404063 -2.82223
lowerneck -5.16357 -5.2143 -4.79051
upperneck 9.89877 -7.35546 8.07709
head 4.28013 -3.36055 2.85237
rclavicle 2.14936e-015 8.34896e-015
rhumerus -0.114337 -20.7577 -24.5141
rradius 112.38
rwrist -52.9734
rhand -12.5314 16.7214
rfingers 7.12502
rthumb 13.5449 -12.8181
lclavicle 2.14936e-015 8.34896e-015
lhumerus 8.54075 26.0571 40.3622
lradius 118.527
lwrist 81.0773
lhand -1.75106 5.09929
lfingers 7.12502
lthumb 23.9121 33.6305
rfemur 0.786694 0.353523 20.4235
rtibia 13.7612
rfoot -14.8487 -0.718081
rtoes -6.74531
lfemur 2.47602 1.46664 -14.5202
ltibia 9.28492
lfoot -11.0806 0.74889
ltoes -6.57455
412
root 3.01202 17.6972 0.530597 -48.6515 88.4677 -47.7837
lowerback 6.91572 -0.555705 3.25515
upperback -2.75953 -0.485437 -0.987936
thorax -6.81684 -0.402874 -2.80599
lowerneck -5.13294 -5.20093 -4.84295
upperneck 9.90987 -7.33759 8.11185
head 4.28031 -3.3523 2.87339
rclavicle 8.69683e-016 6.95746e-015
rhumerus 0.844075 -22.1297 -24.1247
rradius 111.344
rwrist -52.9652
rhand -12.9103 16.3921
rfingers 7.12502
rthumb 13.1796 -13.1714
lclavicle 8.69683e-016 6.95746e-015
lhumerus 9.39248 27.2873 39.915
lradius 117.661
lwrist 81.0225
lhand -2.08968 4.97563
lfingers 7.12502
lthumb 23.5874 33.549
rfemur 0.728319 0.363411 20.4954
rtibia 13.7399
rfoot -14.8002 -0.6954
rtoes -6.66809
lfemur 2.42616 1.52427 -14.4474
ltibia 9.29799
lfoot -11.1127 0.790908
ltoes -6.81409
